<svg width="24" height="24" viewBox="0 0 24 24" fill="none" xmlns="http://www.w3.org/2000/svg">
<g id="fluent:news-28-regular">
<path id="Vector" d="M19.4999 20.5716H4.49995C3.7884 20.5716 3.10381 20.2994 2.58661 19.8107C2.0694 19.322 1.7588 18.654 1.71852 17.9436L1.71423 17.7859V5.35728C1.71417 4.8686 1.89963 4.39812 2.23312 4.04092C2.56661 3.68372 3.02327 3.46644 3.51081 3.433L3.6428 3.42871H16.9285C17.4172 3.42865 17.8877 3.61411 18.2449 3.9476C18.6021 4.28109 18.8194 4.73775 18.8528 5.22528L18.8571 5.35728V6.00014H20.3571C20.8458 6.00008 21.3163 6.18554 21.6735 6.51903C22.0306 6.85252 22.2479 7.30918 22.2814 7.79671L22.2857 7.92871V17.7859C22.2857 18.4974 22.0135 19.182 21.5248 19.6992C21.0361 20.2164 20.3681 20.527 19.6577 20.5673L19.4999 20.5716ZM4.49995 19.2859H19.4999C19.8765 19.2858 20.2393 19.1441 20.5163 18.889C20.7932 18.6338 20.964 18.2837 20.9948 17.9084L20.9999 17.7859V7.92871C20.9999 7.77336 20.9437 7.62327 20.8416 7.5062C20.7395 7.38912 20.5984 7.31298 20.4445 7.29185L20.3571 7.28585H18.8571V16.5001C18.8571 16.6555 18.8008 16.8056 18.6987 16.9227C18.5966 17.0397 18.4556 17.1159 18.3017 17.137L18.2142 17.143C18.0589 17.143 17.9088 17.0867 17.7917 16.9846C17.6746 16.8825 17.5985 16.7415 17.5774 16.5876L17.5714 16.5001V5.35728C17.5714 5.20194 17.5151 5.05185 17.413 4.93477C17.3109 4.81769 17.1699 4.74155 17.0159 4.72043L16.9285 4.71443H3.6428C3.48746 4.71443 3.33737 4.77069 3.22029 4.8728C3.10322 4.9749 3.02707 5.11595 3.00595 5.26985L2.99995 5.35728V17.7859C2.99996 18.1623 3.14152 18.525 3.39653 18.8019C3.65154 19.0788 4.00135 19.2497 4.37652 19.2807L4.49995 19.2859ZM8.78223 11.1464C9.37366 11.1464 9.85366 11.6264 9.85366 12.2179V15.2144C9.85366 15.8059 9.37366 16.2859 8.78223 16.2859H5.78566C5.19423 16.2859 4.71423 15.8059 4.71423 15.2144V12.2179C4.71423 11.6264 5.19423 11.1464 5.78566 11.1464H8.78223ZM12.2142 15.0001H15.2108C15.3737 15.0002 15.5305 15.0621 15.6495 15.1733C15.7685 15.2845 15.8409 15.4367 15.852 15.5992C15.8631 15.7617 15.8121 15.9223 15.7093 16.0487C15.6065 16.175 15.4596 16.2577 15.2982 16.2799L15.2108 16.2859H12.2142C12.0514 16.2858 11.8946 16.2239 11.7756 16.1127C11.6565 16.0015 11.5842 15.8493 11.5731 15.6868C11.562 15.5243 11.613 15.3637 11.7157 15.2373C11.8185 15.111 11.9654 15.0283 12.1268 15.0061L12.2142 15.0001ZM8.5688 12.4321H5.99995V15.0001H8.5688V12.4321ZM12.2142 11.1464H15.2108C15.3737 11.1465 15.5305 11.2083 15.6495 11.3195C15.7685 11.4307 15.8409 11.583 15.852 11.7455C15.8631 11.908 15.8121 12.0686 15.7093 12.195C15.6065 12.3213 15.4596 12.4039 15.2982 12.4261L15.2108 12.4321H12.2142C12.0502 12.4338 11.8917 12.3727 11.7713 12.2613C11.6508 12.15 11.5775 11.9968 11.5663 11.8331C11.5552 11.6694 11.607 11.5077 11.7112 11.381C11.8154 11.2543 11.9641 11.1722 12.1268 11.1516L12.2142 11.1464ZM5.35366 7.28328H15.2108C15.3737 7.28333 15.5305 7.34521 15.6495 7.4564C15.7685 7.5676 15.8409 7.71982 15.852 7.88232C15.8631 8.04482 15.8121 8.20548 15.7093 8.33182C15.6065 8.45817 15.4596 8.54079 15.2982 8.563L15.2108 8.569H5.35366C5.19086 8.56873 5.03422 8.5067 4.91537 8.39544C4.79652 8.28418 4.72431 8.13196 4.71332 7.96953C4.70233 7.8071 4.75338 7.64654 4.85616 7.52029C4.95895 7.39403 5.10581 7.31147 5.26709 7.28928L5.35366 7.28328Z" fill="#72757C" stroke="#72757C" stroke-width="0.5"/>
</g>
</svg>
