<svg width="25" height="24" viewBox="0 0 25 24" fill="none" xmlns="http://www.w3.org/2000/svg">
<g id="person">
<path id="Vector" d="M12.5 5.25C13.7375 5.25 14.75 6.2625 14.75 7.5C14.75 8.7375 13.7375 9.75 12.5 9.75C11.2625 9.75 10.25 8.7375 10.25 7.5C10.25 6.2625 11.2625 5.25 12.5 5.25ZM12.5 16.5C15.5375 16.5 19.025 17.9513 19.25 18.75H5.75C6.00875 17.94 9.47375 16.5 12.5 16.5ZM12.5 3C10.0138 3 8 5.01375 8 7.5C8 9.98625 10.0138 12 12.5 12C14.9862 12 17 9.98625 17 7.5C17 5.01375 14.9862 3 12.5 3ZM12.5 14.25C9.49625 14.25 3.5 15.7575 3.5 18.75V21H21.5V18.75C21.5 15.7575 15.5037 14.25 12.5 14.25Z" fill="#72757C" stroke="white" stroke-width="0.2"/>
</g>
</svg>
